# xmcd CD database file
#
# Track frame offsets:
#	215
#	30900
#	72967
#	109962
#	132692
#	167610
#	201840
#
# Disc length: 2986 seconds
#
# Revision: 0
# Processed by: cddbd v1.5.2PL0 Copyright (c) Steve Scherf et al.
# Submitted via: CDex 1.79
#
DISCID=600ba807
DTITLE=David Blonski - Dance of the Dolphin
DYEAR=1986
DGENRE=New Age
TTITLE0=The Marching Tides
TTITLE1=Distant Shores
TTITLE2=Water's Edge
TTITLE3=Dance of the Dolphin
TTITLE4=Song from the Deep
TTITLE5=Daybreak
TTITLE6=Full Sails
EXTD=YEAR: 1986
EXTT0=
EXTT1=
EXTT2=
EXTT3=
EXTT4=
EXTT5=
EXTT6=
PLAYORDER=
